<?xml version="1.0" encoding="UTF-8"?>
<svg id="white_circles" data-name="white circles" xmlns="http://www.w3.org/2000/svg" viewBox="0 0 574.58 356.62">
  <defs>
    <style>
      .cls-1 {
        fill: #fff;
      }
    </style>
  </defs>
  <circle class="cls-1" cx="13.7" cy="13.7" r="13.7"/>
  <circle class="cls-1" cx="123.61" cy="13.7" r="13.7"/>
  <circle class="cls-1" cx="232.36" cy="13.83" r="13.7"/>
  <circle class="cls-1" cx="341.74" cy="13.83" r="13.7"/>
  <circle class="cls-1" cx="451.48" cy="13.83" r="13.7"/>
  <circle class="cls-1" cx="560.44" cy="14.03" r="13.7"/>
  <circle class="cls-1" cx="13.92" cy="123.45" r="13.7"/>
  <circle class="cls-1" cx="123.83" cy="123.45" r="13.7"/>
  <circle class="cls-1" cx="232.36" cy="123.58" r="13.7"/>
  <circle class="cls-1" cx="341.96" cy="123.58" r="13.7"/>
  <circle class="cls-1" cx="451.7" cy="123.58" r="13.7"/>
  <circle class="cls-1" cx="560.66" cy="123.77" r="13.7"/>
  <circle class="cls-1" cx="14.14" cy="232.7" r="13.7"/>
  <circle class="cls-1" cx="124.05" cy="232.7" r="13.7"/>
  <circle class="cls-1" cx="232.36" cy="232.83" r="13.7"/>
  <circle class="cls-1" cx="342.18" cy="232.83" r="13.7"/>
  <circle class="cls-1" cx="451.91" cy="232.83" r="13.7"/>
  <circle class="cls-1" cx="560.87" cy="233.02" r="13.7"/>
  <circle class="cls-1" cx="14.14" cy="342.59" r="13.7"/>
  <circle class="cls-1" cx="124.05" cy="342.59" r="13.7"/>
  <circle class="cls-1" cx="232.36" cy="342.72" r="13.7"/>
  <circle class="cls-1" cx="342.18" cy="342.72" r="13.7"/>
  <circle class="cls-1" cx="451.91" cy="342.72" r="13.7"/>
  <circle class="cls-1" cx="560.87" cy="342.91" r="13.7"/>
</svg>