<?xml version="1.0" encoding="UTF-8"?>
<svg id="black_circle" data-name="black circle" xmlns="http://www.w3.org/2000/svg" viewBox="0 0 576 357.5">
  <defs>
    <style>
      .cls-1 {
        fill: #020203;
      }
    </style>
  </defs>
  <circle class="cls-1" cx="13.74" cy="13.74" r="13.74"/>
  <circle class="cls-1" cx="123.92" cy="13.74" r="13.74"/>
  <circle class="cls-1" cx="232.93" cy="13.87" r="13.74"/>
  <circle class="cls-1" cx="342.59" cy="13.87" r="13.74"/>
  <circle class="cls-1" cx="452.6" cy="13.87" r="13.74"/>
  <circle class="cls-1" cx="561.83" cy="14.06" r="13.74"/>
  <circle class="cls-1" cx="13.95" cy="123.76" r="13.74"/>
  <circle class="cls-1" cx="124.14" cy="123.76" r="13.74"/>
  <circle class="cls-1" cx="232.93" cy="123.88" r="13.74"/>
  <circle class="cls-1" cx="342.81" cy="123.88" r="13.74"/>
  <circle class="cls-1" cx="452.82" cy="123.88" r="13.74"/>
  <circle class="cls-1" cx="562.05" cy="124.08" r="13.74"/>
  <circle class="cls-1" cx="14.17" cy="233.28" r="13.74"/>
  <circle class="cls-1" cx="124.36" cy="233.28" r="13.74"/>
  <circle class="cls-1" cx="232.93" cy="233.41" r="13.74"/>
  <circle class="cls-1" cx="343.03" cy="233.41" r="13.74"/>
  <circle class="cls-1" cx="453.03" cy="233.41" r="13.74"/>
  <circle class="cls-1" cx="562.26" cy="233.6" r="13.74"/>
  <circle class="cls-1" cx="14.17" cy="343.44" r="13.74"/>
  <circle class="cls-1" cx="124.36" cy="343.44" r="13.74"/>
  <circle class="cls-1" cx="232.93" cy="343.57" r="13.74"/>
  <circle class="cls-1" cx="343.03" cy="343.57" r="13.74"/>
  <circle class="cls-1" cx="453.03" cy="343.57" r="13.74"/>
  <circle class="cls-1" cx="562.26" cy="343.76" r="13.74"/>
</svg>