<?xml version="1.0" encoding="UTF-8"?>
<svg id="Primary_Logo" xmlns="http://www.w3.org/2000/svg" viewBox="0 0 576 288">
  <defs>
    <style>
      .cls-1 {
        fill: #020203;
      }
    </style>
  </defs>
  <g>
    <g>
      <path class="cls-1" d="M233.02,113.46c1.91,2.45,2.86,5.25,2.86,8.4,0,4.54-1.59,8.14-4.76,10.8-3.17,2.66-7.6,3.99-13.28,3.99h-25.32v-54.36h24.47c5.52,0,9.85,1.27,12.97,3.79,3.12,2.53,4.68,5.96,4.68,10.3,0,3.2-.84,5.86-2.52,7.98-1.68,2.12-3.91,3.59-6.7,4.41,3.15.67,5.68,2.23,7.59,4.68ZM205.76,104.28h8.67c2.17,0,3.83-.48,4.99-1.43,1.16-.95,1.74-2.36,1.74-4.22s-.58-3.28-1.74-4.26c-1.16-.98-2.83-1.47-4.99-1.47h-8.67v11.38ZM220.67,124.45c1.21-1.01,1.82-2.46,1.82-4.37s-.63-3.41-1.9-4.49c-1.27-1.08-3.01-1.63-5.23-1.63h-9.6v12h9.76c2.22,0,3.94-.5,5.15-1.51Z"/>
      <path class="cls-1" d="M256.55,82.29v32.52c0,3.25.8,5.76,2.4,7.51,1.6,1.76,3.95,2.63,7.05,2.63s5.47-.88,7.12-2.63c1.65-1.75,2.48-4.26,2.48-7.51v-32.52h13.24v32.44c0,4.85-1.03,8.96-3.1,12.31-2.07,3.36-4.84,5.88-8.32,7.59-3.48,1.7-7.37,2.56-11.65,2.56s-8.12-.84-11.5-2.52c-3.38-1.68-6.05-4.21-8.01-7.59-1.96-3.38-2.94-7.5-2.94-12.35v-32.44h13.24Z"/>
      <path class="cls-1" d="M311.37,82.29v54.36h-13.24v-54.36h13.24Z"/>
      <path class="cls-1" d="M334.21,126.42h17.34v10.22h-30.58v-54.36h13.24v44.14Z"/>
      <path class="cls-1" d="M393.29,85.7c4.28,2.27,7.6,5.46,9.95,9.56,2.35,4.1,3.52,8.84,3.52,14.21s-1.17,10.04-3.52,14.17c-2.35,4.13-5.68,7.33-9.99,9.6-4.31,2.27-9.3,3.41-14.98,3.41h-20.36v-54.36h20.36c5.73,0,10.74,1.14,15.02,3.41ZM389.11,121.08c2.79-2.74,4.18-6.61,4.18-11.62s-1.39-8.9-4.18-11.69-6.69-4.18-11.69-4.18h-6.27v31.59h6.27c5.01,0,8.9-1.37,11.69-4.1Z"/>
      <path class="cls-1" d="M427.44,92.9v11h17.73v10.22h-17.73v11.92h20.05v10.61h-33.29v-54.36h33.29v10.61h-20.05Z"/>
      <path class="cls-1" d="M483.81,136.65l-11.3-20.52h-3.18v20.52h-13.24v-54.36h22.22c4.28,0,7.94.75,10.96,2.25,3.02,1.5,5.28,3.55,6.77,6.16,1.5,2.61,2.25,5.51,2.25,8.71,0,3.61-1.02,6.84-3.06,9.68-2.04,2.84-5.05,4.85-9.02,6.04l12.54,21.53h-14.94ZM469.33,106.76h8.21c2.43,0,4.25-.59,5.46-1.78,1.21-1.19,1.82-2.86,1.82-5.03s-.61-3.69-1.82-4.88c-1.21-1.19-3.03-1.78-5.46-1.78h-8.21v13.47Z"/>
      <path class="cls-1" d="M515.55,135.25c-3.15-1.29-5.67-3.2-7.55-5.73-1.88-2.53-2.88-5.58-2.98-9.14h14.09c.21,2.01.9,3.55,2.09,4.61,1.19,1.06,2.74,1.59,4.65,1.59s3.51-.45,4.65-1.35c1.13-.9,1.7-2.15,1.7-3.75,0-1.34-.45-2.45-1.35-3.33-.9-.88-2.01-1.6-3.33-2.17-1.32-.57-3.19-1.21-5.61-1.94-3.51-1.08-6.38-2.17-8.59-3.25-2.22-1.08-4.13-2.68-5.73-4.8-1.6-2.12-2.4-4.88-2.4-8.28,0-5.06,1.83-9.02,5.5-11.89,3.66-2.87,8.44-4.3,14.32-4.3s10.81,1.43,14.48,4.3c3.67,2.86,5.63,6.85,5.89,11.96h-14.32c-.1-1.75-.75-3.14-1.94-4.14-1.19-1.01-2.71-1.51-4.57-1.51-1.6,0-2.89.43-3.87,1.28-.98.85-1.47,2.08-1.47,3.68,0,1.76.82,3.12,2.48,4.1,1.65.98,4.23,2.04,7.74,3.17,3.51,1.19,6.36,2.32,8.56,3.41,2.19,1.08,4.09,2.66,5.69,4.72,1.6,2.07,2.4,4.72,2.4,7.98s-.79,5.91-2.36,8.44c-1.58,2.53-3.86,4.54-6.85,6.04-2.99,1.5-6.53,2.25-10.61,2.25s-7.54-.64-10.69-1.94Z"/>
    </g>
    <g>
      <path class="cls-1" d="M241.14,195.72h17.34v10.22h-30.58v-54.36h13.24v44.14Z"/>
      <path class="cls-1" d="M278.08,162.19v11h17.73v10.22h-17.73v11.92h20.05v10.61h-33.29v-54.36h33.29v10.61h-20.05Z"/>
      <path class="cls-1" d="M340.56,196.34h-20.29l-3.25,9.6h-13.86l19.67-54.36h15.33l19.67,54.36h-14.01l-3.25-9.6ZM337.16,186.12l-6.74-19.9-6.66,19.9h13.4Z"/>
      <path class="cls-1" d="M399.87,168.77c-.98-1.81-2.39-3.19-4.22-4.14-1.83-.95-3.99-1.43-6.46-1.43-4.29,0-7.72,1.41-10.3,4.22-2.58,2.81-3.87,6.57-3.87,11.27,0,5.01,1.35,8.92,4.06,11.73,2.71,2.81,6.44,4.22,11.19,4.22,3.25,0,6-.82,8.25-2.48,2.25-1.65,3.88-4.03,4.92-7.12h-16.8v-9.76h28.8v12.31c-.98,3.3-2.65,6.38-4.99,9.21-2.35,2.84-5.33,5.14-8.94,6.89-3.61,1.76-7.69,2.63-12.23,2.63-5.37,0-10.16-1.17-14.36-3.52-4.21-2.35-7.49-5.61-9.83-9.79-2.35-4.18-3.52-8.96-3.52-14.32s1.17-10.16,3.52-14.36c2.35-4.21,5.61-7.48,9.79-9.83,4.18-2.35,8.96-3.52,14.32-3.52,6.5,0,11.99,1.58,16.45,4.72,4.46,3.15,7.42,7.51,8.87,13.09h-14.63Z"/>
      <path class="cls-1" d="M435.8,151.58v32.52c0,3.25.8,5.76,2.4,7.51,1.6,1.76,3.95,2.63,7.05,2.63s5.47-.88,7.12-2.63c1.65-1.75,2.48-4.26,2.48-7.51v-32.52h13.24v32.44c0,4.85-1.03,8.96-3.1,12.31-2.07,3.36-4.84,5.88-8.32,7.59-3.48,1.7-7.37,2.56-11.65,2.56s-8.12-.84-11.5-2.52c-3.38-1.68-6.05-4.21-8.01-7.59-1.96-3.38-2.94-7.5-2.94-12.35v-32.44h13.24Z"/>
      <path class="cls-1" d="M490.62,162.19v11h17.73v10.22h-17.73v11.92h20.05v10.61h-33.29v-54.36h33.29v10.61h-20.05Z"/>
    </g>
  </g>
  <path class="cls-1" d="M168.48,186.54c0,2.52-.29,5.51-1.18,8.78-.09.34-.17.6-.22.77-1.29,4.36-2.89,7.35-3.46,8.36-1.06,1.9-2.01,3.19-3.09,4.65-1.54,2.08-3.8,4.84-6.9,7.83,0,0-.46.41-.94.81,0,0-.23.19-.47.38-14.74,11.87-40.17,12.28-40.18,12.28-.77.01-1.3.01-1.58.01H29.94V57.58h77.8c14.71,0,26.75,2.82,36.1,8.46,1.82,1.09,3.53,2.29,5.15,3.6,5.12,4.14,8.76,9.76,8.76,9.76,4.06,6.26,5.62,12.67,6.24,16.5,0,.04.01.08.02.12.47,2.67.74,5.69.74,8.89,0,2.7-.19,5.27-.53,7.61,0,.02,0,.03,0,.05-.2,1.96-.57,3.85-1.11,5.66-2.49,12.68-12.75,22.18-25.03,22.18-1.46,0-2.88-.13-4.27-.39-1.4-.11-2.76-.36-4.1-.75-.09-.02-.18-.03-.27-.05-.02,0-.03,0-.05-.01-3.76-1.21-7.29-2.91-10.52-5.04,0,0-.02-.01-.03-.02-11.83-7.78-19.65-21.18-19.67-36.41h-.61c-.03,24.07-19.55,43.56-43.61,43.56h-.03v.78h.03c24.08,0,43.61,19.53,43.61,43.61v.02h.61v-.02c0-17.18,9.93-32.04,24.37-39.14,1.51-.75,3.07-1.41,4.67-1.98,2.29-.69,4.71-1.07,7.21-1.07.93,0,1.85.05,2.76.16h.02c10.77.22,22.13,9.63,27.47,23.85.15.41.3.84.3.84s2.53,7.24,2.53,16.45h0c0,.58-.02,1.16-.03,1.74Z"/>
</svg>